<mxfile host="app.diagrams.net" modified="2023-05-25T17:03:43.114Z" agent="Mozilla/5.0 (Windows NT 10.0; Win64; x64) AppleWebKit/537.36 (KHTML, like Gecko) Chrome/112.0.0.0 Safari/537.36" etag="KdqqOIUSBNaQCswCtlQa" version="21.3.4" type="github">
  <diagram name="Página-1" id="5epc60IE3qGVqPrUaaoj">
    <mxGraphModel dx="3180" dy="1061" grid="1" gridSize="10" guides="1" tooltips="1" connect="1" arrows="1" fold="1" page="1" pageScale="1" pageWidth="827" pageHeight="1169" math="0" shadow="0">
      <root>
        <mxCell id="0" />
        <mxCell id="1" parent="0" />
        <mxCell id="VgKNul05xVIXojfzLSrd-3" value="" style="edgeStyle=orthogonalEdgeStyle;rounded=0;orthogonalLoop=1;jettySize=auto;html=1;" edge="1" parent="1" source="VgKNul05xVIXojfzLSrd-1" target="VgKNul05xVIXojfzLSrd-2">
          <mxGeometry relative="1" as="geometry" />
        </mxCell>
        <mxCell id="VgKNul05xVIXojfzLSrd-1" value="INICIO" style="ellipse;whiteSpace=wrap;html=1;fillColor=none;" vertex="1" parent="1">
          <mxGeometry x="30" y="20" width="110" height="60" as="geometry" />
        </mxCell>
        <mxCell id="VgKNul05xVIXojfzLSrd-5" value="" style="edgeStyle=orthogonalEdgeStyle;rounded=0;orthogonalLoop=1;jettySize=auto;html=1;" edge="1" parent="1" source="VgKNul05xVIXojfzLSrd-2" target="VgKNul05xVIXojfzLSrd-4">
          <mxGeometry relative="1" as="geometry" />
        </mxCell>
        <mxCell id="VgKNul05xVIXojfzLSrd-2" value="&lt;div&gt;anio_nacimiento (str)&lt;/div&gt;&lt;div&gt;&amp;nbsp; &amp;nbsp; anio_actual (str)&lt;/div&gt;&lt;div&gt;&amp;nbsp; edad (int)&lt;/div&gt;&lt;div&gt;&amp;nbsp; &amp;nbsp; nombre (str)&lt;/div&gt;" style="rounded=0;whiteSpace=wrap;html=1;fillColor=none;" vertex="1" parent="1">
          <mxGeometry x="2.5" y="110" width="165" height="80" as="geometry" />
        </mxCell>
        <mxCell id="VgKNul05xVIXojfzLSrd-7" value="" style="edgeStyle=orthogonalEdgeStyle;rounded=0;orthogonalLoop=1;jettySize=auto;html=1;" edge="1" parent="1" source="VgKNul05xVIXojfzLSrd-4" target="VgKNul05xVIXojfzLSrd-6">
          <mxGeometry relative="1" as="geometry" />
        </mxCell>
        <mxCell id="VgKNul05xVIXojfzLSrd-4" value="&quot;Escribe tu nombre&quot;" style="shape=document;whiteSpace=wrap;html=1;boundedLbl=1;fillColor=none;" vertex="1" parent="1">
          <mxGeometry x="12.5" y="230" width="145" height="50" as="geometry" />
        </mxCell>
        <mxCell id="VgKNul05xVIXojfzLSrd-14" value="" style="edgeStyle=orthogonalEdgeStyle;rounded=0;orthogonalLoop=1;jettySize=auto;html=1;" edge="1" parent="1" source="VgKNul05xVIXojfzLSrd-6" target="VgKNul05xVIXojfzLSrd-13">
          <mxGeometry relative="1" as="geometry" />
        </mxCell>
        <mxCell id="VgKNul05xVIXojfzLSrd-6" value="nombre" style="shape=parallelogram;perimeter=parallelogramPerimeter;whiteSpace=wrap;html=1;fixedSize=1;fillColor=none;" vertex="1" parent="1">
          <mxGeometry x="6.25" y="310" width="157.5" height="30" as="geometry" />
        </mxCell>
        <mxCell id="VgKNul05xVIXojfzLSrd-20" style="edgeStyle=orthogonalEdgeStyle;rounded=0;orthogonalLoop=1;jettySize=auto;html=1;" edge="1" parent="1" source="VgKNul05xVIXojfzLSrd-8">
          <mxGeometry relative="1" as="geometry">
            <mxPoint x="-30" y="630" as="targetPoint" />
          </mxGeometry>
        </mxCell>
        <mxCell id="VgKNul05xVIXojfzLSrd-21" value="NO" style="edgeLabel;html=1;align=center;verticalAlign=middle;resizable=0;points=[];" vertex="1" connectable="0" parent="VgKNul05xVIXojfzLSrd-20">
          <mxGeometry x="-0.0431" relative="1" as="geometry">
            <mxPoint as="offset" />
          </mxGeometry>
        </mxCell>
        <mxCell id="VgKNul05xVIXojfzLSrd-23" style="edgeStyle=orthogonalEdgeStyle;rounded=0;orthogonalLoop=1;jettySize=auto;html=1;entryX=0.5;entryY=0;entryDx=0;entryDy=0;" edge="1" parent="1" source="VgKNul05xVIXojfzLSrd-8" target="VgKNul05xVIXojfzLSrd-26">
          <mxGeometry relative="1" as="geometry">
            <mxPoint x="217.5" y="640" as="targetPoint" />
            <Array as="points">
              <mxPoint x="210" y="585" />
              <mxPoint x="210" y="640" />
              <mxPoint x="211" y="640" />
            </Array>
          </mxGeometry>
        </mxCell>
        <mxCell id="VgKNul05xVIXojfzLSrd-24" value="SI" style="edgeLabel;html=1;align=center;verticalAlign=middle;resizable=0;points=[];" vertex="1" connectable="0" parent="VgKNul05xVIXojfzLSrd-23">
          <mxGeometry x="-0.0842" y="-2" relative="1" as="geometry">
            <mxPoint as="offset" />
          </mxGeometry>
        </mxCell>
        <mxCell id="VgKNul05xVIXojfzLSrd-8" value="anio_actual = 4" style="rhombus;whiteSpace=wrap;html=1;fillColor=none;" vertex="1" parent="1">
          <mxGeometry x="37.5" y="545" width="95" height="80" as="geometry" />
        </mxCell>
        <mxCell id="VgKNul05xVIXojfzLSrd-9" value="" style="ellipse;whiteSpace=wrap;html=1;aspect=fixed;fillColor=none;" vertex="1" parent="1">
          <mxGeometry x="740" y="110" width="80" height="80" as="geometry" />
        </mxCell>
        <mxCell id="VgKNul05xVIXojfzLSrd-10" value="" style="rhombus;whiteSpace=wrap;html=1;fillColor=none;" vertex="1" parent="1">
          <mxGeometry x="725" y="210" width="110" height="50" as="geometry" />
        </mxCell>
        <mxCell id="VgKNul05xVIXojfzLSrd-16" value="" style="edgeStyle=orthogonalEdgeStyle;rounded=0;orthogonalLoop=1;jettySize=auto;html=1;" edge="1" parent="1" source="VgKNul05xVIXojfzLSrd-13" target="VgKNul05xVIXojfzLSrd-15">
          <mxGeometry relative="1" as="geometry" />
        </mxCell>
        <mxCell id="VgKNul05xVIXojfzLSrd-13" value="&quot;Ingresa año actual&quot;" style="shape=document;whiteSpace=wrap;html=1;boundedLbl=1;fillColor=none;" vertex="1" parent="1">
          <mxGeometry x="12.5" y="380" width="145" height="50" as="geometry" />
        </mxCell>
        <mxCell id="VgKNul05xVIXojfzLSrd-17" value="" style="edgeStyle=orthogonalEdgeStyle;rounded=0;orthogonalLoop=1;jettySize=auto;html=1;" edge="1" parent="1" source="VgKNul05xVIXojfzLSrd-15" target="VgKNul05xVIXojfzLSrd-8">
          <mxGeometry relative="1" as="geometry" />
        </mxCell>
        <mxCell id="VgKNul05xVIXojfzLSrd-15" value="anio_actual" style="shape=parallelogram;perimeter=parallelogramPerimeter;whiteSpace=wrap;html=1;fixedSize=1;fillColor=none;" vertex="1" parent="1">
          <mxGeometry x="6.25" y="460" width="157.5" height="30" as="geometry" />
        </mxCell>
        <mxCell id="VgKNul05xVIXojfzLSrd-25" style="edgeStyle=orthogonalEdgeStyle;rounded=0;orthogonalLoop=1;jettySize=auto;html=1;entryX=0;entryY=0.25;entryDx=0;entryDy=0;" edge="1" parent="1" source="VgKNul05xVIXojfzLSrd-19" target="VgKNul05xVIXojfzLSrd-13">
          <mxGeometry relative="1" as="geometry">
            <Array as="points">
              <mxPoint x="-160" y="665" />
              <mxPoint x="-160" y="393" />
            </Array>
          </mxGeometry>
        </mxCell>
        <mxCell id="VgKNul05xVIXojfzLSrd-19" value="&quot;Rango de año no soportado&quot;" style="shape=document;whiteSpace=wrap;html=1;boundedLbl=1;fillColor=none;" vertex="1" parent="1">
          <mxGeometry x="-110" y="640" width="155" height="50" as="geometry" />
        </mxCell>
        <mxCell id="VgKNul05xVIXojfzLSrd-29" style="edgeStyle=orthogonalEdgeStyle;rounded=0;orthogonalLoop=1;jettySize=auto;html=1;entryX=0.435;entryY=-0.04;entryDx=0;entryDy=0;entryPerimeter=0;" edge="1" parent="1" source="VgKNul05xVIXojfzLSrd-26" target="VgKNul05xVIXojfzLSrd-27">
          <mxGeometry relative="1" as="geometry">
            <mxPoint x="70" y="770" as="targetPoint" />
            <Array as="points">
              <mxPoint x="80" y="695" />
            </Array>
          </mxGeometry>
        </mxCell>
        <mxCell id="VgKNul05xVIXojfzLSrd-30" value="NO" style="edgeLabel;html=1;align=center;verticalAlign=middle;resizable=0;points=[];" vertex="1" connectable="0" parent="VgKNul05xVIXojfzLSrd-29">
          <mxGeometry x="-0.4243" y="2" relative="1" as="geometry">
            <mxPoint as="offset" />
          </mxGeometry>
        </mxCell>
        <mxCell id="VgKNul05xVIXojfzLSrd-33" style="edgeStyle=orthogonalEdgeStyle;rounded=0;orthogonalLoop=1;jettySize=auto;html=1;entryX=0.75;entryY=0;entryDx=0;entryDy=0;exitX=1;exitY=0.5;exitDx=0;exitDy=0;" edge="1" parent="1" source="VgKNul05xVIXojfzLSrd-26" target="VgKNul05xVIXojfzLSrd-32">
          <mxGeometry relative="1" as="geometry" />
        </mxCell>
        <mxCell id="VgKNul05xVIXojfzLSrd-26" value="anio_actual &amp;lt; 2030&amp;nbsp; &lt;br&gt;y &lt;br&gt;&amp;gt; 2023" style="rhombus;whiteSpace=wrap;html=1;fillColor=none;" vertex="1" parent="1">
          <mxGeometry x="140" y="640" width="140" height="110" as="geometry" />
        </mxCell>
        <mxCell id="VgKNul05xVIXojfzLSrd-31" style="edgeStyle=orthogonalEdgeStyle;rounded=0;orthogonalLoop=1;jettySize=auto;html=1;entryX=0;entryY=0.75;entryDx=0;entryDy=0;" edge="1" parent="1" source="VgKNul05xVIXojfzLSrd-27" target="VgKNul05xVIXojfzLSrd-15">
          <mxGeometry relative="1" as="geometry">
            <Array as="points">
              <mxPoint x="-140" y="815" />
              <mxPoint x="-140" y="482" />
            </Array>
          </mxGeometry>
        </mxCell>
        <mxCell id="VgKNul05xVIXojfzLSrd-27" value="&quot;¿En que año vives?&quot;" style="shape=document;whiteSpace=wrap;html=1;boundedLbl=1;fillColor=none;" vertex="1" parent="1">
          <mxGeometry x="12.5" y="790" width="155" height="50" as="geometry" />
        </mxCell>
        <mxCell id="VgKNul05xVIXojfzLSrd-36" value="" style="edgeStyle=orthogonalEdgeStyle;rounded=0;orthogonalLoop=1;jettySize=auto;html=1;" edge="1" parent="1" source="VgKNul05xVIXojfzLSrd-32" target="VgKNul05xVIXojfzLSrd-35">
          <mxGeometry relative="1" as="geometry" />
        </mxCell>
        <mxCell id="VgKNul05xVIXojfzLSrd-32" value="&quot;Ingresa tu año de nacimiento&quot;&quot;" style="shape=document;whiteSpace=wrap;html=1;boundedLbl=1;fillColor=none;" vertex="1" parent="1">
          <mxGeometry x="260" y="780" width="145" height="50" as="geometry" />
        </mxCell>
        <mxCell id="VgKNul05xVIXojfzLSrd-35" value="anio_nacimiento" style="shape=parallelogram;perimeter=parallelogramPerimeter;whiteSpace=wrap;html=1;fixedSize=1;fillColor=none;" vertex="1" parent="1">
          <mxGeometry x="253.75" y="870" width="157.5" height="30" as="geometry" />
        </mxCell>
      </root>
    </mxGraphModel>
  </diagram>
</mxfile>
